<?xml version="1.0" encoding="utf-8"?><!-- Generator: Adobe Illustrator 25.0.1, SVG Export Plug-In . SVG Version: 6.00 Build 0)  -->
<svg width="48" height="48" xmlns="http://www.w3.org/2000/svg">
    <g fill-rule="evenodd" fill="none">
        <path fill="#FFFFFF" d="M24.5,11.4c2,0,4.4-1.3,5.9-3.1c1.3-1.6,2.3-3.9,2.3-6.1c0-0.3,0-0.6-0.1-0.9c-2.2,0.1-4.8,1.5-6.4,3.3
	C25,6,23.9,8.3,23.9,10.5c0,0.3,0.1,0.7,0.1,0.8C24.1,11.3,24.3,11.4,24.5,11.4L24.5,11.4z M17.6,45c2.7,0,3.9-1.8,7.2-1.8
	c3.4,0,4.2,1.7,7.2,1.7c2.9,0,4.9-2.7,6.8-5.4c2.1-3.1,2.9-6.1,3-6.2c-0.2-0.1-5.8-2.4-5.8-8.8c0-5.6,4.4-8.1,4.7-8.3
	c-2.9-4.2-7.4-4.3-8.6-4.3c-3.3,0-6,2-7.7,2c-1.8,0-4.2-1.9-7.1-1.9c-5.4,0-11,4.5-11,13c0,5.3,2.1,10.9,4.6,14.5
	C13,42.5,14.9,45,17.6,45z" />
    </g>
</svg>
