<?xml version="1.0" encoding="utf-8"?>
<!-- Generator: Adobe Illustrator 25.0.1, SVG Export Plug-In . SVG Version: 6.00 Build 0)  -->
<svg version="1.1" id="Layer_1" xmlns="http://www.w3.org/2000/svg" xmlns:xlink="http://www.w3.org/1999/xlink" x="0px" y="0px"
	 viewBox="0 0 48 48" style="enable-background:new 0 0 48 48;" xml:space="preserve">
<path d="M41.3,11.7h-7.7c0-0.3,0-1.8,0-2.8C32.4-2.6,15.7-3.3,14.2,8.8c-0.1,0.9,0,2.9,0,2.9H6.7L2.4,48h43.2L41.3,11.7z M16.1,9.6
	c0-1.8,0.7-3.5,1.8-4.8c2.8-3.4,7.8-3.8,11.1-1c1.4,1.2,2.3,2.8,2.6,4.5c0.1,0.7,0.1,1.3,0.1,2v1.4H16.1
	C16.1,11.7,16.1,10.3,16.1,9.6z M8.3,13.6h5.9v2.6c-0.5,0.3-0.9,0.9-0.9,1.6c0,1,0.8,1.8,1.8,1.8s1.8-0.8,1.8-1.8
	c0-0.7-0.4-1.3-0.9-1.6v-2.6h15.6v2.6c-0.5,0.3-0.9,0.9-0.9,1.6c0,1,0.8,1.8,1.8,1.8c1,0,1.8-0.8,1.8-1.8c0-0.7-0.4-1.3-0.9-1.6
	v-2.6h6.1l3.8,32.5h-39L8.3,13.6z"/>
</svg>
