<?xml version="1.0" encoding="utf-8"?>
<!-- Generator: Adobe Illustrator 25.0.1, SVG Export Plug-In . SVG Version: 6.00 Build 0)  -->
<svg version="1.1" id="Layer_1" xmlns="http://www.w3.org/2000/svg" xmlns:xlink="http://www.w3.org/1999/xlink" x="0px" y="0px"
	 viewBox="0 0 48 48" style="enable-background:new 0 0 48 48;" xml:space="preserve">
<path d="M33.6,12.6c0-0.3,0-1.8,0-2.8C32.4-1.6,15.8-2.3,14.3,9.7c-0.1,0.9,0,2.9,0,2.9H0V47h48V12.6H33.6z M16.1,10.5
	c0-1.8,0.7-3.5,1.8-4.8c2.8-3.4,7.8-3.8,11.1-1c1.4,1.2,2.3,2.8,2.6,4.5c0.1,0.7,0.1,1.3,0.1,2v1.4H16.1
	C16.1,12.6,16.1,11.2,16.1,10.5z M46.1,45.1H1.9V14.5h12.3v2.6c-0.5,0.3-0.9,0.9-0.9,1.6c0,1,0.8,1.8,1.8,1.8s1.8-0.8,1.8-1.8
	c0-0.7-0.4-1.2-0.9-1.6v-2.6h15.6v2.6c-0.5,0.3-0.9,0.9-0.9,1.6c0,1,0.8,1.8,1.8,1.8s1.8-0.8,1.8-1.8c0-0.7-0.4-1.2-0.9-1.6v-2.6
	h12.5V45.1z"/>
</svg>
