<?xml version="1.0" encoding="utf-8"?>
<!-- Generator: Adobe Illustrator 25.0.1, SVG Export Plug-In . SVG Version: 6.00 Build 0)  -->
<svg version="1.1" id="Layer_1" xmlns="http://www.w3.org/2000/svg" xmlns:xlink="http://www.w3.org/1999/xlink" x="0px" y="0px"
	 viewBox="0 0 48 48" style="enable-background:new 0 0 48 48;" xml:space="preserve">
<path d="M44.9,39.3c-0.6-6.3-3.1-8.3-9-10.7c0.2,0.4,0.4,1.2,0.5,1.7c0,0.1,0.1,0.2,0.3,0.3c1.4,0.6,2.2,2,1.9,3.4
	c-0.4,1.8-2.2,2.7-3.9,2.1c-1.2-0.4-2-1.6-1.9-2.8c0-1.2,0.9-2.4,2-2.7c0.2-0.1,0.3-0.2,0.2-0.4c-0.2-0.8-0.6-1.5-1.2-2.1
	c0,0,0,0,0,0c-0.7-0.9-1.7-1.7-2.6-2.4c-1-0.7-1.2-1.8-0.7-2.4c1.2-1.4,2.1-3,2.8-4.8c0.1-0.1,0.1-0.3,0.2-0.4
	c0.4-0.2,0.7-0.6,0.8-0.9c0.7-1.4,1-2.8,0.7-4.3c-0.1-0.4-0.2-0.7-0.5-1c-0.1-0.1-0.2-0.2-0.2-0.4c0-0.4,0-0.8,0-1.1
	c0-1.6-0.2-3.2-0.9-4.7c-1.4-3.2-3.8-4.9-7.1-5.5c-1.3-0.2-2.7-0.2-4.1-0.1c-1.4,0.2-2.8,0.6-4,1.3c-2.4,1.4-3.8,3.4-4.2,6.1
	c-0.1,0.6-0.2,1.2-0.2,1.8c-0.1,0.7-0.2,1.5-0.3,2.2c0,0.1-0.1,0.2-0.1,0.2c-0.5,0.2-0.6,0.7-0.7,1.1c-0.3,1.4,0,2.7,0.6,4
	c0.2,0.4,0.4,0.9,0.9,1.1c0.2,0.1,0.3,0.3,0.4,0.5c0,0.1,0.1,0.2,0.1,0.3c0.7,1.7,1.6,3.3,2.9,4.7c0.4,0.4,0.5,1.1,0.1,1.6
	c-0.2,0.2-0.4,0.5-0.8,0.6c-1,0.5-2.1,1.1-2.3,1.5c-1.1,1.3-1.5,3-1.6,4c0,0.1,0,0.2,0.1,0.2c0.5,0.4,0.9,0.9,1.6,1.1c0,0,0,0,0,0
	c1.1,0.7,1.9,1.7,2.5,2.8c0.1,0.2,0.1,0.4,0.1,0.6c0,0.2,0,0.4,0.1,0.5c0.7,1.6,1.1,3.3,1,5.1c0,0.6-0.1,1.1-0.6,1.5
	c-0.4,0.3-0.9,0.5-1.4,0.8c0,0,0,0,0,0c-0.4,0-0.8,0.1-1.2,0.1c-0.4,0-0.8-0.3-0.9-0.7c-0.1-0.4,0.2-0.8,0.6-0.9
	c0.5-0.1,1-0.1,1.5-0.1c0.4,0,0.6-0.1,0.6-0.5c0.1-1.5-0.2-2.9-0.7-4.2c-0.1-0.3-0.3-0.5-0.4-0.7c-0.1-0.2-0.3-0.3-0.5-0.5
	c-0.5-0.8-1-1.5-1.8-2c-0.8-0.5-1.5-0.5-2.3,0.2c-0.7,0.6-1.1,1.4-1.4,2.3c-0.1,0.3-0.2,0.6-0.5,0.7c-0.1,0-0.1,0.2-0.1,0.3
	c-0.3,1-0.4,1.9-0.3,2.9c0.1,0.6,0.2,1.2,0.3,1.8c0.1,0.3,0.3,0.3,0.5,0.3c0.5-0.1,0.9-0.1,1.4-0.2c0.5,0,0.9,0.3,1,0.7
	c0,0.5-0.3,0.9-0.8,0.9c-0.7,0.1-1.3,0.1-2-0.1C8.7,44,8.2,43.6,8,42.9c-0.4-1.4-0.4-2.8-0.2-4.2c0.1-0.7,0.4-1.3,0.3-2
	c0,0,0-0.1,0-0.2c0.5-1.3,1.1-2.5,2.2-3.4c0.3-0.3,0.8-0.5,0.9-1c0,0,0-0.1,0.1-0.1c0.4-0.3,0.5-0.7,0.5-1.1c0,0,0-0.1,0-0.1
	c0.1-0.3,0.2-0.6,0.3-0.9c0,0,0.6-1.4,0.6-1.4c0,0-0.3,0.2-0.3,0.1c-1.2,0.6-2.3,1.3-3.5,1.9c-3.3,1.6-5.2,4.3-5.6,7.9
	C3,41.1,2.7,48,2.7,48h42.6C45.3,48,45.1,41.8,44.9,39.3z M16.3,17.6c-0.1-0.1-0.1-0.2-0.3-0.2c-0.2,0.1-0.4-0.1-0.5-0.2
	c-0.2-0.4-0.4-0.7-0.6-1.1c-0.3-0.8-0.2-1.6-0.1-2.4c0-0.4,0.3-0.6,0.7-0.5c0,0,0.1,0,0.1,0c0.1-0.5,0.2-0.9,0.4-1.4
	c0.4-1.1,1.1-2,2.2-2.4c0.8-0.3,1.6-0.4,2.4-0.1c1.3,0.4,2.6,0.6,4,0.4c0.6-0.1,1.2-0.2,1.8-0.3c0.9-0.1,1.7-0.1,2.6,0.3
	c0.5,0.2,0.9,0.4,1.3,0.7c0.1,0,0.1,0.1,0.2,0.1c0,0,0,0,0.1,0c-0.1-0.3-0.2-0.6-0.3-0.9c0.2-0.1,0.4,0.1,0.5,0.2
	c0.5,0.6,0.9,1.3,1.1,2c0.2,0.5,0.3,1,0.5,1.4c0,0.1,0.1,0.2,0.1,0.2c0.2,0,0.4,0,0.5,0c0.2,0.1,0.3,0.3,0.3,0.5
	c0.2,0.7,0.2,1.4,0,2.1c-0.1,0.4-0.3,0.8-0.5,1.2c-0.2,0.3-0.4,0.6-0.8,0.5c-0.1,0-0.2,0.1-0.2,0.2c-0.6,1.8-1.5,3.4-2.7,4.8
	c-0.9,1-2,1.9-3.3,2.4c-1.3,0.5-2.6,0.4-3.9-0.1c-1.3-0.6-2.4-1.5-3.3-2.6C17.6,20.7,16.8,19.2,16.3,17.6z M17.9,27.6
	c0,0,0.9-2.4,2.1-1.8c0.3,0.1,2,0.9,2.7,1c1.2,0.3,2.3,0.2,3.4-0.2c0.6-0.2,1.1-0.5,1.6-0.8c0.5-0.3,1.2-0.2,1.7,0.2
	c0.6,0.5,1.1,1.2,1.3,1.6C26.8,31.5,21.5,31.5,17.9,27.6z M35.6,32c0.8,0,1.5,0.6,1.5,1.5c0,0.8-0.7,1.5-1.5,1.5
	c-0.8,0-1.5-0.7-1.5-1.5C34.2,32.6,34.8,32,35.6,32z"/>
</svg>
