<?xml version="1.0" encoding="utf-8"?>
<!-- Generator: Adobe Illustrator 25.0.1, SVG Export Plug-In . SVG Version: 6.00 Build 0)  -->
<svg version="1.1" id="Layer_1" xmlns="http://www.w3.org/2000/svg" xmlns:xlink="http://www.w3.org/1999/xlink" x="0px" y="0px"
	 viewBox="0 0 48 48" style="enable-background:new 0 0 48 48;" xml:space="preserve">
<path d="M30.9,36.1l1.3,1.3l-8.3,8.2l-8.1-8.2l1.3-1.3L23,42V17.5h1.8V42L30.9,36.1z M0.1,25.2c0.7,4.4,4.6,7.4,9,7.5
	c3.5,0,7,0,10.5,0v-1.8c-0.6,0-7.7,0-10.7,0c-3.5,0-6.3-2.3-7-5.7c-0.8-3.6,1.6-7.4,5.2-8.3c0.5-3.7,2.4-6.1,5.9-7.1
	c1.6-0.4,3.2-0.4,4.7,0.2c1.4,0.5,2.4,1.5,2.4,1.5c0.2-0.5,0.4-1.1,0.6-1.5c2.1-4,6.3-6.2,10.8-5.7c4.6,0.6,8.3,4,9.1,8.5
	c0.2,1.2,0.3,2.6,0.1,3.8c0,0.1,0,0.3,0,0.3S40.9,17,41,17c3.2,1,5.3,3.8,5.2,7.1c-0.1,3.1-2.4,5.9-5.4,6.6c-0.6,0.1-1.3,0.2-2,0.2
	c-3.5,0-7,0-10.4,0v1.8c0,0,9.4,0,10.8,0c4.3,0,7.9-3.1,8.7-7.3c0.7-3.9-1.3-7.9-4.8-9.6c-0.2-0.1-0.4-0.2-0.4-0.2s0-0.3,0-0.4
	c0.2-5.8-3.8-11-9.4-12.4C28,1.5,22.6,3.7,19.7,8.4c-0.1,0.2-0.2,0.4-0.2,0.4S19.2,8.7,19,8.6c-5.7-2.4-12.1,0.8-13.4,7
	C1.7,17.1-0.5,21.1,0.1,25.2z"/>
</svg>
