<?xml version="1.0" encoding="utf-8"?><!-- Generator: Adobe Illustrator 25.0.1, SVG Export Plug-In . SVG Version: 6.00 Build 0)  -->
<svg width="48" height="48" xmlns="http://www.w3.org/2000/svg">
    <g id="group">
        <path fill="#4285f4" d="M44.9,24.5c0-1.5-0.1-3-0.4-4.4h-20v8.2h11.5c-0.5,2.7-2,4.9-4.2,6.4v5.3h6.9C42.5,36.4,44.9,31,44.9,24.5
		L44.9,24.5z" />
        <path fill="#34a853" d="M24.4,45.3c5.7,0,10.6-1.9,14.1-5.2l-6.9-5.3c-1.9,1.3-4.3,2-7.2,2c-5.5,0-10.2-3.7-11.9-8.8H5.4v5.5
		C8.9,40.5,16.1,45.3,24.4,45.3z" />
        <path fill="#fbbc05" d="M12.5,28c-0.4-1.3-0.7-2.6-0.7-4s0.2-2.8,0.7-4v-5.5H5.4C4,17.3,3.1,20.6,3.1,24c0,3.4,0.8,6.7,2.3,9.6
		L12.5,28z" />
        <path fill="#ea4335" d="M24.4,11.2c3.1,0,5.9,1.1,8.1,3.2l6.1-6.1C35,4.8,30.2,2.7,24.4,2.7c-8.3,0-15.5,4.8-19,11.7l7.1,5.5
		C14.2,14.9,18.9,11.2,24.4,11.2L24.4,11.2z" />
    </g>
</svg>
