<?xml version="1.0" encoding="utf-8"?>
<!-- Generator: Adobe Illustrator 25.0.1, SVG Export Plug-In . SVG Version: 6.00 Build 0)  -->
<svg version="1.1" id="Layer_1" xmlns="http://www.w3.org/2000/svg" xmlns:xlink="http://www.w3.org/1999/xlink" x="0px" y="0px"
	 viewBox="0 0 48 48" style="enable-background:new 0 0 48 48;" xml:space="preserve">
<path d="M24,48C10.7,48,0,37.2,0,24C0,10.7,10.8,0,24,0c13.3,0,24,10.8,24,24.1C48,37.3,37.2,48,24,48z M24,1.7
	C11.7,1.7,1.7,11.7,1.7,24c0,12.3,10,22.3,22.3,22.3c12.3,0,22.3-10,22.3-22.3C46.3,11.7,36.3,1.7,24,1.7z M28.2,25.2
	c2.8-1.9,4.1-5.5,3.1-8.7c-1.1-3.4-4.1-5.5-7.7-5.4c-3.3,0.1-6.3,2.5-7.1,5.8c-0.2,0.6-0.2,1.2-0.3,1.9c0.6,0,1.2,0,1.7,0
	c0-0.3,0.1-0.6,0.1-0.9c0.5-3.3,3.5-5.5,6.8-5.1c3.2,0.4,5.5,3.4,5.1,6.6c-0.2,2-1.2,3.6-3,4.6c-1.7,1-2.8,2.4-3.4,4.2
	c-0.3,0.8-0.4,1.6-0.4,2.4c0.6,0,1.1,0,1.6,0C25.3,27.7,25.8,26.8,28.2,25.2z M23.4,34.2c-0.1,0-0.2,0.2-0.2,0.3c0,0.9,0,1.8,0,2.8
	c0,0.1,0.1,0.3,0.2,0.3c0.5,0,1,0,1.5,0c0-1.1,0-2.2,0-3.3C24.3,34.2,23.9,34.2,23.4,34.2z"/>
</svg>
