<?xml version="1.0" encoding="utf-8"?>
<!-- Generator: Adobe Illustrator 25.0.1, SVG Export Plug-In . SVG Version: 6.00 Build 0)  -->
<svg version="1.1" id="Layer_1" xmlns="http://www.w3.org/2000/svg" xmlns:xlink="http://www.w3.org/1999/xlink" x="0px" y="0px"
	 viewBox="0 0 48 48" style="enable-background:new 0 0 48 48;" xml:space="preserve">
<path d="M30.5,1.7L29.4,0l-7.9,5l4.9,7.9l1.7-1.1l-3.1-5c8.1,0.4,15.5,5.9,17.9,14.2c3,10.4-3,21.3-13.5,24.4s-21.3-3-24.4-13.5
	C2.6,23.4,6.2,14.6,13.2,10l-1-1.6c-7.7,5-11.6,14.7-9,24c3.3,11.4,15.2,18,26.7,14.7s18-15.2,14.7-26.7c-2.6-9-10.5-15-19.4-15.5
	L30.5,1.7z"/>
</svg>
