<svg xmlns="http://www.w3.org/2000/svg" viewBox="0 0 45.76 48"><title>magazine</title><g id="Layer_2" data-name="Layer 2"><g id="Layer_1-2" data-name="Layer 1"><path d="M21.74,44.87V9.52c0-1.19,0-1.19-.89-2l-.11-.09a18.94,18.94,0,0,0-7-3.51c-.93-.27-1.87-.49-2.81-.67C9.72,3,8.51,2.81,7.29,2.69c-1.51-.15-3-.21-4.55-.3-.45,0-.45,0-.45.44V41c0,.21.07.26.26.27,2.26,0,4.51.16,6.76.38.82.08,1.64.19,2.45.3.65.09,1.3.2,1.94.32s1.39.26,2.07.43c.84.21,1.67.43,2.49.7s1.45.54,2.16.83C20.85,44.39,21.25,44.63,21.74,44.87Zm2.31,0,.2-.07a15.38,15.38,0,0,1,3.37-1.43c1-.29,2-.59,3-.81s2.12-.4,3.18-.55c1.29-.18,2.58-.36,3.87-.46,1.79-.13,3.59-.19,5.39-.27.37,0,.37,0,.37-.39V2.76c0-.38,0-.38-.38-.37A38.39,38.39,0,0,0,38,2.76c-1.34.2-2.69.39-4,.69s-2.46.69-3.67,1.09a16,16,0,0,0-3.7,1.79A12.34,12.34,0,0,0,24.23,8.2a.69.69,0,0,0-.21.5V44.55C24,44.64,24,44.73,24.05,44.84ZM45.76,42c0,.14,0,.29,0,.43a1.09,1.09,0,0,1-.89,1,8,8,0,0,1-1.09.07c-1.76.07-3.53.09-5.29.2a43.79,43.79,0,0,0-5.59.7c-1.21.25-2.43.5-3.63.82a26.47,26.47,0,0,0-2.84,1,11.15,11.15,0,0,0-2.8,1.56,1.2,1.2,0,0,1-1.48,0,10.86,10.86,0,0,0-1-.68,21.46,21.46,0,0,0-5.68-2.15c-.89-.22-1.79-.39-2.69-.55s-2-.35-3.08-.46c-1.36-.14-2.73-.26-4.09-.33s-2.86-.08-4.28-.11a1.16,1.16,0,0,1-1.14-.58A1.87,1.87,0,0,1,0,42.05C0,31.26,0,3,0,1.23A1.15,1.15,0,0,1,.76.06,1,1,0,0,1,1.11,0C2.75.07,4.4.13,6,.23,7,.28,7.89.39,8.81.52S10.52.8,11.37,1s1.88.4,2.79.68c1.08.33,2.16.72,3.21,1.15a18.5,18.5,0,0,1,4,2.24c.43.32.85.67,1.27,1,.15.13.25.16.41,0A17.76,17.76,0,0,1,28,3c.9-.39,1.82-.76,2.75-1.08s1.64-.49,2.47-.69S35.05.83,36,.67A29.21,29.21,0,0,1,38.92.28C40.76.15,42.61.09,44.45,0a1.1,1.1,0,0,1,1.12.57,1.59,1.59,0,0,1,.18.74C45.77,3.05,45.76,31.17,45.76,42Z"/></g></g></svg>