<?xml version="1.0" encoding="utf-8"?>
<!-- Generator: Adobe Illustrator 25.0.1, SVG Export Plug-In . SVG Version: 6.00 Build 0)  -->
<svg version="1.1" id="Layer_1" xmlns="http://www.w3.org/2000/svg" xmlns:xlink="http://www.w3.org/1999/xlink" x="0px" y="0px"
	 viewBox="0 0 48 34.2" style="enable-background:new 0 0 48 34.2;" xml:space="preserve">
<path d="M47.4,4.4c-3.1-1.9-12-8.1-23.4-1.2C12-3.9,2.4,3.3,0.6,4.4C0.2,4.7,0,5.1,0,5.6v27.3c0,1.6,1.1,1.3,1.5,1.2
	c7.2-2.2,12.1-4.6,22-0.1c0.1,0.1,0.3,0.1,0.5,0.1s0.4,0,0.5-0.1c9.7-4.4,15-2.4,22,0c0.2,0.1,0.3,0.1,0.5,0.1s1,0,1-1.2V5.6
	C48,5.1,47.8,4.6,47.4,4.4z M23.1,31.8c-9.7-3.6-14.6-1.7-21.4,0.5V5.7c3.6-2.4,12.4-7,21.4-1V31.8z M46.3,32
	c-4.8-1.7-11.1-4.1-21.4-0.3v-27c9.5-6.2,17.7-1.4,21.4,1V32z"/>
</svg>
