<?xml version="1.0" encoding="utf-8"?>
<!-- Generator: Adobe Illustrator 25.0.1, SVG Export Plug-In . SVG Version: 6.00 Build 0)  -->
<svg version="1.1" id="Layer_1" xmlns="http://www.w3.org/2000/svg" xmlns:xlink="http://www.w3.org/1999/xlink" x="0px" y="0px"
	 viewBox="0 0 48 48" style="enable-background:new 0 0 48 48;" xml:space="preserve">
<path d="M45.3,48C31,48,17,48,2.7,48c0.2-3,0.6-5.9,2.2-8.3c2.9-4.4,7.1-7.3,11.5-10.1c2.5,4.6,5,9,7.5,13.6c2.6-4.7,5-9.1,7.5-13.6
	c4.4,2.8,8.7,5.7,11.5,10.1C44.7,42.1,45,45,45.3,48z M12.8,27.8c-0.2,1.3,0.4,1.5,1.4,1.3c1-0.2,2-0.4,3.1-0.6c0.5,0,1.1,0,1.5,0.3
	c2.8,2,7.6,2,10.4,0c0.4-0.3,1-0.4,1.4-0.3c1.2,0.1,2.4,0.4,3.6,0.6c0.6,0.1,1.1,0,1-1c-0.1-1.3,0-2.6,0-3.9
	c0.2-3.7,0.6-7.4,0.7-11.1c0.1-2.8-1-5.1-3.2-6.9c-0.3-0.3-0.6-0.9-0.5-1.3c0.1-1.4-0.4-2.3-1.6-3.1c-3.6-2.4-9.9-2.4-13.5,0
	c-1.2,0.8-1.7,1.7-1.5,3.1c0,0.4-0.1,1-0.3,1.2c-2.6,2.1-3.6,4.9-3.4,8.2c0.3,4.1,0.6,8.1,0.8,11.9C12.8,26.9,12.9,27.3,12.8,27.8z
	 M27.7,15.7c3.1,0.4,4.9,2.7,4.4,5.7c-0.8,4.5-4.6,7.4-9.1,7c-1.9-0.2-3.3-1.1-4.4-2.6c-2.1-2.8-2.9-6-3.3-9.3
	c0-0.3,0.1-0.7,0.4-0.9c1.3-1.1,2.6-2.1,4.1-3.4c1.3,0.9,2.9,1.9,4.3,3c1.4,1.1,2.8,2.3,4.5,3.6C28.2,17.5,28,16.6,27.7,15.7z
	 M17.9,8.6c-0.5-0.5-0.5-2.8-0.6-3.2c-0.1-1.8,0.4-2.3,2.6-3.2c3.5-1.6,6.9-1,10.1,1.1c0.4,0.3,0.7,0.9,0.8,1.4
	c0.3,2.2,0,3.6-0.4,3.9C28.4,10.2,19.6,10.1,17.9,8.6z M26.7,4.7h-1.9v-2h-1.6v2h-1.9v1.4h1.9v2h1.6v-2h1.9V4.7z"/>
</svg>
