<?xml version="1.0" encoding="utf-8"?>
<!-- Generator: Adobe Illustrator 25.0.1, SVG Export Plug-In . SVG Version: 6.00 Build 0)  -->
<svg version="1.1" id="Layer_1" xmlns="http://www.w3.org/2000/svg" xmlns:xlink="http://www.w3.org/1999/xlink" x="0px" y="0px"
	 viewBox="0 0 48 48" style="enable-background:new 0 0 48 48;" xml:space="preserve">
<path d="M45,42.5L32.6,30c2.3-2.8,3.7-6.5,3.7-10.4C36.2,10.4,28.8,3,19.6,3S3,10.4,3,19.6s7.4,16.6,16.6,16.6
	c3.9,0,7.6-1.4,10.4-3.7L42.5,45L45,42.5z M9.1,30.2c-2.8-2.8-4.4-6.6-4.4-10.5S6.3,12,9.1,9.2s6.6-4.4,10.5-4.4s7.7,1.6,10.5,4.4
	s4.4,6.6,4.4,10.5s-1.6,7.7-4.4,10.5c-2.8,2.8-6.6,4.4-10.5,4.4S11.9,33,9.1,30.2z"/>
</svg>
