<?xml version="1.0" encoding="utf-8"?>
<!-- Generator: Adobe Illustrator 25.0.1, SVG Export Plug-In . SVG Version: 6.00 Build 0)  -->
<svg version="1.1" id="Layer_1" xmlns="http://www.w3.org/2000/svg" xmlns:xlink="http://www.w3.org/1999/xlink" x="0px" y="0px"
	 viewBox="0 0 48 48" style="enable-background:new 0 0 48 48;" xml:space="preserve">
<path d="M9.6,4.7c0.3,0.2,0.5,0.3,0.7,0.4c3.4,3.2,8.9,1.2,10-2.8c0.1-0.4,0.2-0.9,0.2-1.3c0.1-0.7,0.3-1,1-1c1.7,0,3.4,0,5.1,0
	c0.7,0,1,0.3,1,1c0.1,2.3,1.2,4,3.2,5c2.1,1.1,4.2,1,6.2-0.3c0.3-0.2,0.6-0.4,0.8-0.7c0.4-0.4,0.9-0.4,1.3,0
	c1.3,1.3,2.5,2.5,3.8,3.8c0.4,0.4,0.4,0.9-0.1,1.3c-3.2,3.4-1.2,8.9,2.9,9.9c0.5,0.1,0.9,0.1,1.4,0.2c0.7,0.1,0.9,0.3,0.9,1
	c0,1.7,0,3.4,0,5.1c0,0.8-0.2,1.1-1.1,1.1c-2.3,0.1-4,1.2-5,3.2c-1.1,2.1-1,4.1,0.3,6.1c0.2,0.3,0.4,0.5,0.6,0.8
	c0.4,0.5,0.4,0.9,0,1.4c-1.2,1.2-2.5,2.5-3.7,3.7c-0.5,0.5-0.9,0.5-1.4,0c-3.1-3-7.8-1.5-9.4,1.5c-0.5,0.8-0.7,1.7-0.7,2.7
	c0,0.8-0.3,1-1,1c-1.7,0-3.4,0-5.1,0c-0.8,0-1-0.3-1.1-1c-0.1-2.3-1.2-4-3.2-5c-2.1-1.1-4.2-1.1-6.2,0.2c-0.3,0.2-0.6,0.5-0.9,0.7
	c-0.4,0.3-0.8,0.4-1.2,0c-1.3-1.3-2.6-2.5-3.8-3.8c-0.4-0.4-0.4-0.8,0.1-1.3C8.3,34.4,6.5,29.3,3,28c-0.6-0.2-1.3-0.3-2-0.4
	c-0.7-0.1-1-0.3-1-1c0-1.7,0-3.4,0-5.2c0-0.7,0.3-1,1-1c4.5-0.1,7-5,5.3-8.5c-0.3-0.6-0.7-1.1-1.1-1.6c-0.4-0.5-0.5-0.9,0-1.4
	c1.2-1.2,2.4-2.4,3.7-3.7C9,5,9.3,4.9,9.6,4.7z M9.6,6.8C8.7,7.7,7.8,8.6,7,9.4C6.9,9.5,6.9,9.7,7,9.8c0.1,0.2,0.3,0.5,0.5,0.7
	C10.1,15,7.3,21.2,2.1,22c-0.3,0-0.4,0.2-0.4,0.5c0,1,0,2.1,0,3.1C1.6,25.9,1.7,26,2,26c3.3,0.6,5.3,2.6,6.2,5.8
	c0.6,2.2,0.2,4.3-1.2,6.2c-0.1,0.2-0.3,0.3-0.1,0.5c0.8,0.8,1.6,1.6,2.4,2.4c0.1,0.1,0.3,0.1,0.4,0c0.3-0.1,0.5-0.3,0.8-0.5
	c4.6-2.6,10.5,0.2,11.3,5.4c0.1,0.3,0.2,0.5,0.5,0.5c1,0,2,0,3,0c0.4,0,0.5-0.1,0.6-0.5c0.9-5.3,7.2-8.1,11.7-5.2
	c0.2,0.1,0.5,0.3,0.7,0.5c0.8-0.8,1.7-1.7,2.5-2.5c0.2-0.2,0.2-0.4,0.1-0.6c-0.7-1-1.2-2.1-1.4-3.3c-0.5-3.5,1.7-8,6.4-8.7
	c0.3,0,0.4-0.2,0.3-0.4c0-1.1,0-2.2,0-3.2c0-0.1,0-0.2,0-0.3c-2.9-0.5-5-2-6.2-4.8c-1.1-2.7-0.7-5.3,1-7.7c-0.9-0.9-1.8-1.7-2.6-2.6
	c-0.1-0.1-0.3,0-0.4,0c-0.4,0.2-0.8,0.5-1.3,0.8c-4.5,2.1-10-0.7-10.8-5.6c-0.1-0.3-0.2-0.5-0.5-0.5c-1,0-2,0-3.1,0
	c-0.4,0-0.5,0.1-0.5,0.4c-0.8,4.8-5.8,7.2-9.6,6.1C11.3,7.9,10.4,7.5,9.6,6.8z M24,11.8c-6.7,0-12.2,5.4-12.2,12.2
	S17.3,36.2,24,36.2S36.2,30.7,36.2,24S30.7,11.8,24,11.8z M24,34.5c-5.8,0-10.5-4.7-10.5-10.5S18.2,13.5,24,13.5S34.5,18.2,34.5,24
	S29.8,34.5,24,34.5z"/>
</svg>
