<?xml version="1.0" encoding="utf-8"?>
<!-- Generator: Adobe Illustrator 25.0.1, SVG Export Plug-In . SVG Version: 6.00 Build 0)  -->
<svg version="1.1" id="Layer_1" xmlns="http://www.w3.org/2000/svg" xmlns:xlink="http://www.w3.org/1999/xlink" x="0px" y="0px"
	 viewBox="0 0 48 48" style="enable-background:new 0 0 48 48;" xml:space="preserve">
<path d="M33.7,11.6c0-0.3,0-0.5,0-0.8c0-0.6,0-1.3,0-2c-1.2-11.4-18-12.1-19.5,0c-0.1,0.9,0,1.8-0.1,2.6v0.1H2.4V48h43.2V11.6H33.7z
	 M16.1,9.6c0-1.8,0.7-3.5,1.8-4.8C20.7,1.4,25.7,1,29,3.8c1.4,1.2,2.3,2.8,2.6,4.5c0.1,0.7,0.1,1.3,0.1,2v1.2H16.1
	C16.1,10.9,16.1,10.3,16.1,9.6z M43.4,45.6H4.3v-32h39.1V45.6z"/>
</svg>
