<?xml version="1.0" encoding="utf-8"?>
<!-- Generator: Adobe Illustrator 25.0.1, SVG Export Plug-In . SVG Version: 6.00 Build 0)  -->
<svg version="1.1" id="Layer_1" xmlns="http://www.w3.org/2000/svg" xmlns:xlink="http://www.w3.org/1999/xlink" x="0px" y="0px"
	 viewBox="0 0 48 48" style="enable-background:new 0 0 48 48;" xml:space="preserve">
<path d="M38,20H14v-8c0-5.5,4.5-10,10-10s10,4.5,10,10v1c0,0.6,0.4,1,1,1s1-0.4,1-1v-1c0-6.6-5.4-12-12-12S12,5.4,12,12v8h-2
	c-2.2,0-4,1.8-4,4v20c0,2.2,1.8,4,4,4h28c2.2,0,4-1.8,4-4V24C42,21.8,40.2,20,38,20z M40,44c0,1.1-0.9,2-2,2H10c-1.1,0-2-0.9-2-2V24
	c0-1.1,0.9-2,2-2h28c1.1,0,2,0.9,2,2V44z"/>
</svg>
